<svg width="32" height="32" viewBox="0 0 32 32" fill="none" xmlns="http://www.w3.org/2000/svg">
<mask id="mask0_3_24" style="mask-type:luminance" maskUnits="userSpaceOnUse" x="0" y="0" width="32" height="32">
<path d="M32 0H0V32H32V0Z" fill="white"/>
</mask>
<g mask="url(#mask0_3_24)">
<path d="M30.3591 20.7898C30.4978 20.8385 30.6366 20.8629 30.7754 20.8629C30.9973 20.8629 31.1916 20.8141 31.3304 20.6922C31.4691 20.5701 31.5801 20.3993 31.6357 20.1797C31.6911 19.9601 31.7466 19.6916 31.7466 19.3988V9.68723C31.7466 9.39443 31.7189 9.10157 31.6357 8.80877C31.5801 8.51597 31.4691 8.24755 31.3304 7.97914C31.1916 7.71078 30.9973 7.46675 30.7754 7.2471C30.5534 7.02752 30.2759 6.83232 29.9706 6.6615L29.1104 6.22228C28.8051 6.05146 28.5276 5.97828 28.3056 5.97828C28.0837 5.97828 27.8894 6.02708 27.7506 6.14906C27.6119 6.27108 27.5008 6.44192 27.4453 6.6615C27.3899 6.88109 27.3343 7.1495 27.3343 7.4423V17.1784C27.3343 17.4712 27.3621 17.764 27.4453 18.0568C27.5008 18.3496 27.6119 18.618 27.7506 18.8865C27.8894 19.1549 28.0837 19.3988 28.3056 19.6185C28.4999 19.8137 28.7218 19.9845 28.9717 20.1309L27.5842 19.4477L7.68731 27.2316L9.40785 28.0856L13.3206 26.5728L17.4831 28.6468L14.4306 30.599L16.2066 31.4774L31.7466 21.473L30.3591 20.7898ZM18.7041 27.7928L14.9023 25.8896L27.4731 20.9605L28.8606 21.6438L18.7041 27.7928ZM29.9706 19.106L29.1104 18.6668C28.9161 18.5692 28.8051 18.4472 28.7218 18.2764C28.6386 18.13 28.6109 17.9592 28.6109 17.8128V8.05235C28.6109 7.90599 28.6386 7.78394 28.7218 7.68634C28.8051 7.61318 28.9161 7.61319 29.1104 7.71079L29.9706 8.14995C30.1371 8.24755 30.2759 8.3696 30.3591 8.51597C30.4424 8.68678 30.4701 8.83322 30.4701 8.97958V18.7156C30.4701 18.8621 30.4424 18.9841 30.3591 19.0817C30.2482 19.2036 30.1371 19.1793 29.9706 19.106Z" fill="#76FF6A"/>
<path d="M25.4468 18.1788C25.6966 18.1788 25.8631 18.13 26.0296 18.008C26.1683 17.886 26.2793 17.7152 26.3625 17.4956C26.4458 17.276 26.4735 17.0076 26.4735 16.7148V6.88115C26.4735 6.58835 26.4458 6.29547 26.3625 6.00267C26.2793 5.70987 26.196 5.44144 26.0296 5.17303C25.8908 4.90462 25.6966 4.66061 25.4468 4.441C25.1971 4.22139 24.9195 4.00178 24.5865 3.85537L23.6708 3.41615C23.3378 3.24534 23.0326 3.17215 22.8105 3.14774C22.5608 3.14774 22.3666 3.19654 22.2278 3.31855C22.089 3.44056 21.9781 3.61136 21.8948 3.83097C21.8116 4.05058 21.7838 4.31899 21.7838 4.61181V14.4211C21.7838 14.7139 21.8116 15.0067 21.8948 15.2995C21.9781 15.5923 22.0613 15.8851 22.2278 16.1292C22.3666 16.3976 22.5608 16.6415 22.8105 16.8856C22.977 17.0319 23.1713 17.1784 23.3656 17.3004L23.0603 17.154L16.7055 20.3261L16.6501 16.788L19.4805 15.3727L21.3121 3.85537V2.2693L16.9275 0V1.58607L19.9246 3.12334L17.7601 14.4943L13.0425 16.8367L13.0703 16.8124L13.9861 16.3C14.3191 16.1048 14.6242 15.8851 14.8463 15.6167C15.096 15.3483 15.2903 15.0799 15.429 14.7871C15.5678 14.4943 15.6788 14.177 15.7621 13.8354C15.8453 13.4938 15.873 13.1766 15.873 12.835V1.80568C15.873 1.48847 15.8453 1.19565 15.7621 0.927245C15.6788 0.683232 15.5956 0.488022 15.429 0.341615C15.2903 0.195208 15.096 0.146406 14.8463 0.146406C14.5965 0.146406 14.3191 0.244011 13.9861 0.43922L13.0703 0.951642C12.7373 1.14685 12.432 1.36646 12.2101 1.63487C11.9602 1.90328 11.766 2.1717 11.6273 2.46451C11.4885 2.75732 11.3775 3.07454 11.2943 3.41615C11.211 3.75777 11.1833 4.07498 11.1833 4.4166V15.4703C11.1833 15.8119 11.211 16.0803 11.2943 16.3487C11.3775 16.5928 11.4608 16.788 11.6273 16.9343C11.766 17.0808 11.9602 17.1295 12.2101 17.1295C12.3765 17.1295 12.5986 17.0808 12.8205 16.9588L7.52025 19.6184L8.40823 19.1061C8.74126 18.9108 9.01882 18.6913 9.2685 18.4228C9.51832 18.1544 9.6848 17.886 9.85128 17.5932C9.99002 17.3004 10.101 16.9832 10.1842 16.6415C10.2398 16.3 10.2952 15.9827 10.2952 15.6412V4.63621C10.2952 4.319 10.2675 4.02618 10.1842 3.75777C10.1288 3.51375 10.0178 3.31855 9.85128 3.17215C9.71253 3.02573 9.51832 2.97693 9.2685 2.97693C9.04655 2.97693 8.74126 3.07454 8.40823 3.26975L7.52025 3.78217C7.18724 3.97738 6.90978 4.19699 6.66 4.4654C6.41029 4.73381 6.24376 5.00223 6.07726 5.29503C5.93851 5.58784 5.82751 5.90507 5.77202 6.24667C5.71651 6.58835 5.66101 6.90547 5.66101 7.24717V18.2764C5.66101 18.618 5.68876 18.8865 5.77202 19.1549C5.82751 19.3989 5.93851 19.5941 6.07726 19.7405C6.21602 19.8869 6.41029 19.9357 6.66 19.9357C6.82654 19.9357 6.99301 19.8869 7.21499 19.7893L1.7205 22.4978C1.74825 22.4734 1.80376 22.449 1.8315 22.4246L2.66401 21.9366C2.99701 21.7414 3.27451 21.5218 3.52425 21.2533C3.74626 20.985 3.94051 20.7165 4.10701 20.3993C4.24576 20.1065 4.35675 19.7649 4.44001 19.4477C4.49551 19.1061 4.55101 18.7644 4.55101 18.4472V12.5178C4.55101 12.1762 4.52326 11.8833 4.44001 11.6393C4.35675 11.3709 4.27351 11.1757 4.10701 11.0537C3.96826 10.9073 3.774 10.8585 3.52425 10.8585C3.30226 10.8585 2.99701 10.9561 2.66401 11.1513L1.30425 11.9322V8.61363L4.32901 6.88115V5.12423L0 7.61312V14.4211L2.69176 12.8838C2.886 12.7618 3.02475 12.7618 3.10801 12.835C3.19126 12.9326 3.21901 13.0546 3.21901 13.2742V19.2037C3.21901 19.3989 3.19126 19.5697 3.10801 19.7405C3.02475 19.9113 2.886 20.0577 2.69176 20.1797L1.85925 20.6677C1.66501 20.7897 1.52626 20.7897 1.443 20.6921C1.35976 20.5945 1.332 20.4481 1.332 20.2773V15.9095L0 16.6659V21.0338C0 21.3754 0.02775 21.6682 0.111 21.9122C0.166501 22.1806 0.2775 22.3758 0.416251 22.4978C0.555001 22.6442 0.749251 22.693 0.999002 22.693C1.16551 22.693 1.3875 22.6442 1.60951 22.5222L0 23.3519L1.74825 24.2059L14.3191 17.9348L14.4856 21.3997L5.32802 25.9628L7.07625 26.8168L24.8086 17.9592C25.0306 18.13 25.2526 18.1788 25.4468 18.1788ZM7.104 17.9104C7.02076 17.8128 6.99301 17.6908 6.99301 17.4956V6.4663C6.99301 6.29547 7.02076 6.10027 7.104 5.92944C7.18724 5.75867 7.32603 5.61227 7.52025 5.49024L8.40823 4.97782C8.60251 4.88022 8.71352 4.85582 8.7968 4.95343C8.88 5.05103 8.90773 5.17303 8.90773 5.36827V16.3976C8.90773 16.5683 8.88 16.7636 8.7968 16.9343C8.71352 17.1052 8.57478 17.2516 8.40823 17.3492L7.52025 17.8616C7.32603 17.9836 7.18724 18.008 7.104 17.9104ZM12.654 15.1287C12.5708 15.0311 12.5431 14.9091 12.5431 14.7139V3.66017C12.5431 3.48936 12.5708 3.29415 12.654 3.12334C12.7373 2.95253 12.876 2.80613 13.0703 2.68412L13.9861 2.1717C14.1803 2.07409 14.3191 2.04969 14.4023 2.1473C14.4856 2.2449 14.5133 2.36691 14.5133 2.56212V13.6158C14.5133 13.7866 14.4856 13.9818 14.4023 14.1526C14.3191 14.3235 14.1803 14.4699 13.9861 14.5675L13.0703 15.0799C12.876 15.2019 12.7373 15.2263 12.654 15.1287ZM23.6708 15.934C23.4766 15.8364 23.3378 15.7143 23.2546 15.5436C23.1713 15.3971 23.1435 15.2263 23.1435 15.0799V5.27064C23.1435 5.09983 23.1713 4.97782 23.2546 4.90462C23.3378 4.83142 23.4766 4.83142 23.6708 4.92902L24.5865 5.36827C24.7808 5.46587 24.8918 5.58784 24.9751 5.75867C25.0583 5.92944 25.086 6.07589 25.086 6.24667V16.0559C25.086 16.2268 25.0583 16.3244 24.9751 16.422C24.8918 16.4952 24.7531 16.4952 24.5865 16.3976L23.6708 15.934Z" fill="#76FF6A"/>
</g>
</svg>
